{
  "accessors": [
    {
      "bufferView": 0,
      "componentType": 5126,
      "count": 406,
      "type": "VEC2",
      "byteOffset": 0
    },
    {
      "bufferView": 1,
      "componentType": 5126,
      "count": 406,
      "type": "VEC3",
      "byteOffset": 0
    },
    {
      "bufferView": 2,
      "componentType": 5126,
      "count": 406,
      "type": "VEC4",
      "byteOffset": 0
    },
    {
      "bufferView": 3,
      "componentType": 5126,
      "count": 406,
      "type": "VEC3",
      "max": [
        0.02128091,
        0.06284806,
        0.0138090011
      ],
      "min": [
        -0.02128091,
        -0.00004773855,
        -0.013809
      ],
      "byteOffset": 0
    },
    {
      "bufferView": 4,
      "componentType": 5123,
      "count": 2046,
      "type": "SCALAR",
      "byteOffset": 0
    }
  ],
  "asset": {
    "generator": "glTF Tools for Unity",
    "version": "2.0"
  },
  "bufferViews": [
    {
      "buffer": 0,
      "byteOffset": 0,
      "byteLength": 3248,
      "byteStride": 8,
      "target": 34962
    },
    {
      "buffer": 0,
      "byteOffset": 3248,
      "byteLength": 4872,
      "byteStride": 12,
      "target": 34962
    },
    {
      "buffer": 0,
      "byteOffset": 8120,
      "byteLength": 6496,
      "byteStride": 16,
      "target": 34962
    },
    {
      "buffer": 0,
      "byteOffset": 14616,
      "byteLength": 4872,
      "byteStride": 12,
      "target": 34962
    },
    {
      "buffer": 0,
      "byteOffset": 19488,
      "byteLength": 4092,
      "target": 34963
    }
  ],
  "buffers": [
    {
      "name": "asset",
      "byteLength": 23580,
      "uri": "data:application/octet-stream;base64,"
    }
  ],
  "images": [
    {
      "mimeType": "image/png",
      "uri": "asset0.png"
    },
    {
      "mimeType": "image/png",
      "uri": "asset1.png"
    },
    {
      "mimeType": "image/png",
      "uri": "asset2.png"
    }
  ],
  "meshes": [
    {
      "primitives": [
        {
          "attributes": {
            "TEXCOORD_0": 0,
            "NORMAL": 1,
            "TANGENT": 2,
            "POSITION": 3
          },
          "indices": 4,
          "material": 0,
          "mode": 4
        }
      ],
      "name": "Avocado"
    }
  ],
  "materials": [
    {
      "pbrMetallicRoughness": {
        "baseColorTexture": {
          "index": 0,
          "texCoord": 0
        },
        "metallicRoughnessTexture": {
          "index": 1,
          "texCoord": 0
        },
        "baseColorFactor": [
          1,
          1,
          1,
          1
        ],
        "metallicFactor": 1,
        "roughnessFactor": 1
      },
      "normalTexture": {
        "index": 2,
        "texCoord": 0
      },
      "name": "2256_Avocado_d",
      "emissiveFactor": [
        0,
        0,
        0
      ],
      "alphaMode": "OPAQUE",
      "doubleSided": false
    }
  ],
  "nodes": [
    {
      "mesh": 0,
      "rotation": [
        0,
        1,
        0,
        0
      ],
      "name": "Avocado",
      "translation": [
        0,
        0,
        0
      ],
      "scale": [
        1,
        1,
        1
      ]
    }
  ],
  "scene": 0,
  "scenes": [
    {
      "nodes": [
        0
      ]
    }
  ],
  "textures": [
    {
      "source": 0
    },
    {
      "source": 1
    },
    {
      "source": 2
    }
  ]
}
